<mxfile host="app.diagrams.net" modified="2024-05-27T10:56:10.860Z" agent="Mozilla/5.0 (Windows NT 10.0; Win64; x64) AppleWebKit/537.36 (KHTML, like Gecko) Chrome/122.0.0.0 YaBrowser/24.4.0.0 Safari/537.36" version="24.4.8" etag="ehmJ3mFqPBo-vGIgTOpR" type="github">
  <diagram name="Страница — 1" id="z6xW4O6IbaC5A_mPLrO5">
    <mxGraphModel>
      <root>
        <mxCell id="0" />
        <mxCell id="1" parent="0" />
      </root>
    </mxGraphModel>
  </diagram>
</mxfile>
